<?xml version="1.0" standalone="no"?>
<!DOCTYPE svg PUBLIC "-//W3C//DTD SVG 20010904//EN"
 "http://www.w3.org/TR/2001/REC-SVG-20010904/DTD/svg10.dtd">
<svg version="1.0" xmlns="http://www.w3.org/2000/svg"
 width="1280.000000pt" height="1280.000000pt" viewBox="0 0 1280.000000 1280.000000"
 preserveAspectRatio="xMidYMid meet">
<metadata>
Created by potrace 1.15, written by Peter Selinger 2001-2017
</metadata>
<g transform="translate(0.000000,1280.000000) scale(0.100000,-0.100000)"
fill="#7a9c54" stroke="none">
<path d="M1075 12793 c-134 -17 -310 -73 -424 -134 -325 -175 -541 -462 -627
-834 -18 -77 -19 -167 -19 -2080 0 -1913 1 -2003 19 -2080 58 -252 162 -442
336 -615 188 -187 403 -298 668 -344 82 -14 301 -16 2027 -16 2114 0 2010 -3
2200 57 439 139 761 511 839 971 14 81 16 312 16 2027 0 1726 -2 1945 -16
2027 -46 265 -157 482 -344 668 -168 169 -338 265 -590 332 l-85 23 -1985 1
c-1092 1 -1998 -1 -2015 -3z"/>
<path d="M7735 12785 c-393 -61 -732 -304 -906 -647 -71 -142 -108 -260 -129
-421 -6 -51 -10 -740 -10 -1972 0 -1232 4 -1921 10 -1972 71 -538 447 -946
980 -1060 81 -17 188 -18 2065 -18 1877 0 1984 1 2065 18 250 54 462 168 634
341 185 188 300 418 341 686 22 142 22 3868 0 4010 -29 194 -85 339 -192 502
-155 238 -406 423 -674 498 -183 51 -122 50 -2184 49 -1489 -1 -1938 -4 -2000
-14z"/>
<path d="M1070 6099 c-271 -35 -522 -159 -714 -353 -185 -188 -300 -418 -341
-686 -22 -142 -22 -3868 0 -4010 29 -194 85 -339 192 -502 190 -291 487 -479
843 -533 142 -22 3868 -22 4010 0 136 21 230 49 347 105 351 167 585 462 679
860 17 70 18 193 22 2010 3 2012 3 2037 -39 2200 -100 394 -402 721 -789 853
-194 66 -20 61 -2185 63 -1078 1 -1989 -2 -2025 -7z"/>
<path d="M7760 6099 c-450 -58 -834 -364 -993 -791 -30 -78 -53 -179 -67 -281
-6 -51 -10 -740 -10 -1972 0 -1232 4 -1921 10 -1972 38 -289 155 -530 354
-727 188 -185 418 -300 686 -341 142 -22 3868 -22 4010 0 356 54 653 242 843
533 107 163 163 308 192 502 22 142 22 3868 0 4010 -21 136 -49 230 -105 347
-167 351 -462 585 -860 679 -71 17 -190 18 -2035 20 -1078 1 -1989 -2 -2025
-7z"/>
</g>
</svg>
